<?xml version="1.0" encoding="UTF-8"?>
<svg version="1.1" xmlns="http://www.w3.org/2000/svg" width="32" height="32">
<path d="M0 0 C4.8846525 2.26787438 7.73212562 5.1153475 10 10 C10.75381535 15.5997712 10.77303575 20.33499991 8.375 25.5 C3.80134327 30.3143755 0.6912538 32.25156236 -6 32.5 C-12.6912538 32.25156236 -15.80134327 30.3143755 -20.375 25.5 C-22.77303575 20.33499991 -22.75381535 15.5997712 -22 10 C-17.52212837 0.3553534 -9.85292056 -1.32635469 0 0 Z " fill="#6D2808" transform="translate(22,0)"/>
<path d="M0 0 C3.68462985 3.52442856 4.19179334 5.64220248 4.3125 10.75 C4.25568726 16.02727204 3.75321305 19.04924942 0 23 C-4.74914505 27.5116878 -9.05771462 27.41436837 -15.29296875 27.3359375 C-18 27 -18 27 -21 25 C-21 24.34 -21 23.68 -21 23 C-20.34 23 -19.68 23 -19 23 C-18.7525 22.4225 -18.505 21.845 -18.25 21.25 C-16.39263106 17.90673592 -14.44242241 15.48080747 -10.75 14.25 C-10.1725 14.1675 -9.595 14.085 -9 14 C-9.66 12.68 -10.32 11.36 -11 10 C-10.44570313 9.81824219 -9.89140625 9.63648438 -9.3203125 9.44921875 C-8.23363281 9.07216797 -8.23363281 9.07216797 -7.125 8.6875 C-6.40570313 8.44386719 -5.68640625 8.20023438 -4.9453125 7.94921875 C-2.66005095 7.03664453 -2.66005095 7.03664453 -1 4 C-1.66 3.67 -2.32 3.34 -3 3 C-2.01 2.67 -1.02 2.34 0 2 C0 1.34 0 0.68 0 0 Z " fill="#6C2708" transform="translate(28,5)"/>
<path d="M0 0 C0.66 0.33 1.32 0.66 2 1 C1.67 2.32 1.34 3.64 1 5 C2.32 5 3.64 5 5 5 C4.375 6.9375 4.375 6.9375 3 9 C-0.125 9.75 -0.125 9.75 -3 10 C-3 10.99 -3 11.98 -3 13 C-2.34 13.33 -1.68 13.66 -1 14 C-4 16 -4 16 -5.9375 16.875 C-8.41512632 18.22643254 -10.08334485 19.94644091 -12 22 C-13.32 21.34 -14.64 20.68 -16 20 C-13.05611343 16.47151185 -10.12036808 13.06712751 -6.75 9.9375 C-3.97757786 7.25171606 -3.04213163 4.73430503 -2 1 C-1.34 0.67 -0.68 0.34 0 0 Z " fill="#9A5B19" transform="translate(21,5)"/>
<path d="M0 0 C0.66 0.33 1.32 0.66 2 1 C1.67 2.32 1.34 3.64 1 5 C2.32 5 3.64 5 5 5 C4.34 6.32 3.68 7.64 3 9 C-1.875 8.125 -1.875 8.125 -3 7 C-3.25 4.5625 -3.25 4.5625 -3 2 C-2.01 1.34 -1.02 0.68 0 0 Z " fill="#D2761D" transform="translate(21,5)"/>
<path d="M0 0 C0.66 0.33 1.32 0.66 2 1 C0.515 2.485 0.515 2.485 -1 4 C-0.34 4.66 0.32 5.32 1 6 C-0.98 6.99 -0.98 6.99 -3 8 C-3.66 7.01 -4.32 6.02 -5 5 C-3.35 3.35 -1.7 1.7 0 0 Z " fill="#9C5517" transform="translate(10,19)"/>
<path d="M0 0 C0.99 0.99 1.98 1.98 3 3 C2.01 4.32 1.02 5.64 0 7 C-1.32 6.67 -2.64 6.34 -4 6 C-3.525625 5.38125 -3.05125 4.7625 -2.5625 4.125 C-0.97582559 2.09294454 -0.97582559 2.09294454 0 0 Z " fill="#BF6315" transform="translate(12,17)"/>
</svg>
